HIERARCHY
ROOT Hips
{
	OFFSET -0.179506 -22.333345 2.821913
	CHANNELS 6 Xposition Yposition Zposition Zrotation Yrotation Xrotation 
	JOINT LeftUpLeg
	{
		OFFSET 6.951974 -9.140623 -0.681533
		CHANNELS 3 Zrotation Yrotation Xrotation
		JOINT LeftLeg
		{
			OFFSET 3.427654 -37.519855 -0.449580
			CHANNELS 3 Zrotation Yrotation Xrotation
			JOINT LeftFoot
			{
				OFFSET -1.359570 -39.796059 -4.369333
				CHANNELS 3 Zrotation Yrotation Xrotation
				JOINT LeftToe
				{
					OFFSET 2.635814 -5.579078 11.928840
					CHANNELS 3 Zrotation Yrotation Xrotation
					End Site
					{
						OFFSET 0.000000 0.000000 0.000000
					}
				}
			}
		}
	}
	JOINT RightUpLeg
	{
		OFFSET -6.767048 -9.052170 -0.431982
		CHANNELS 3 Zrotation Yrotation Xrotation
		JOINT RightLeg
		{
			OFFSET -3.829005 -38.256897 -0.885003
			CHANNELS 3 Zrotation Yrotation Xrotation
			JOINT RightFoot
			{
				OFFSET 1.577377 -39.841461 -4.231180
				CHANNELS 3 Zrotation Yrotation Xrotation
				JOINT RightToe
				{
					OFFSET -2.537174 -4.814398 12.334795
					CHANNELS 3 Zrotation Yrotation Xrotation
					End Site
					{
						OFFSET 0.000000 0.000000 0.000000
					}
				}
			}
		}
	}
	JOINT Spine
	{
		OFFSET -0.253288 10.896323 -2.669631
		CHANNELS 3 Zrotation Yrotation Xrotation
		JOINT Spine1
		{
			OFFSET 0.548704 13.518043 0.109247
			CHANNELS 3 Zrotation Yrotation Xrotation
			JOINT Spine2
			{
				OFFSET 0.145701 5.292222 2.542457
				CHANNELS 3 Zrotation Yrotation Xrotation
				JOINT Neck
				{
					OFFSET -0.277840 21.387037 -4.285703
					CHANNELS 3 Zrotation Yrotation Xrotation
					JOINT Head
					{
						OFFSET 0.515184 6.496960 5.134897
						CHANNELS 3 Zrotation Yrotation Xrotation
						End Site
						{
							OFFSET 0.000000 0.000000 0.000000
						}
					}
				}
				JOINT LeftShoulder
				{
					OFFSET 7.884473 12.174932 -3.408961
					CHANNELS 3 Zrotation Yrotation Xrotation
					JOINT LeftArm
					{
						OFFSET 9.097692 3.046888 -0.886815
						CHANNELS 3 Zrotation Yrotation Xrotation
						JOINT LeftForeArm
						{
							OFFSET 25.961220 -1.277207 -2.745643
							CHANNELS 3 Zrotation Yrotation Xrotation
							JOINT LeftHand
							{
								OFFSET 24.923361 0.898606 -0.117091
								CHANNELS 3 Zrotation Yrotation Xrotation
								End Site
								{
									OFFSET 0.000000 0.000000 0.000000
								}
							}
						}
					}
				}
				JOINT RightShoulder
				{
					OFFSET -8.175920 11.883285 -3.861528
					CHANNELS 3 Zrotation Yrotation Xrotation
					JOINT RightArm
					{
						OFFSET -9.601238 3.255117 -0.914307
						CHANNELS 3 Zrotation Yrotation Xrotation
						JOINT RightForeArm
						{
							OFFSET -25.374195 -1.332924 -2.140099
							CHANNELS 3 Zrotation Yrotation Xrotation
							JOINT RightHand
							{
								OFFSET -25.529810 0.777228 -0.555919
								CHANNELS 3 Zrotation Yrotation Xrotation
								End Site
								{
									OFFSET 0.000000 0.000000 0.000000
								}
							}
						}
					}
				}
			}
		}
	}
}
MOTION
Frames: 6
Frame Time: 0.033333
47.510868 26.731436 86.212967 -82.569748 3.305983 84.090705 18.019501 9.662698 -4.576507 -3.813772 10.695241 39.807633 1.247142 14.051485 -34.603366 nan nan nan -17.530082 -11.259964 -18.558018 2.657587 -12.818278 30.143621 5.095725 -2.028635 -8.136400 nan nan nan -4.782425 1.375940 4.652069 6.557761 -3.849050 13.079870 1.671325 0.205097 -6.330779 0.435324 -7.077794 8.144466 -0.681557 -16.662542 0.735655 -8.794549 -12.406221 -0.353133 -69.849550 -43.334753 33.303819 149.793882 -65.460230 -124.771860 -5.830162 -17.893431 -5.753166 12.940253 8.959113 -0.341063 38.123896 10.546984 0.306378 -78.941179 59.215174 -65.567317 10.484978 10.425258 -18.303813 
47.475166 26.755808 86.218216 -82.606470 3.282862 84.072998 17.948370 9.666623 -4.562030 -3.533911 10.808428 39.899747 1.319601 13.887957 -34.641584 nan nan nan -17.513506 -11.243594 -18.547777 2.597730 -12.922876 30.173169 5.060702 -1.865087 -8.497576 nan nan nan -4.811801 1.384070 4.884609 6.575601 -3.859910 12.935188 1.666112 0.231925 -6.653204 0.273466 -6.533457 8.483925 -0.645652 -16.313773 0.504635 -8.907208 -12.096431 -0.244018 -70.097826 -43.301898 33.533843 149.398066 -65.472357 -124.505422 -6.589224 -18.053618 -5.527619 13.010646 8.843102 0.016231 38.468554 10.927886 0.318169 -79.145683 58.818970 -65.431464 11.053747 10.446499 -18.068981 
47.452534 26.767639 86.208618 -82.619692 3.260295 84.037860 17.846250 9.576951 -4.546405 -3.427310 10.754114 39.927031 1.348250 13.989876 -34.674464 nan nan nan -17.535987 -11.251320 -18.563142 2.588789 -12.970625 30.271942 5.054288 -1.871427 -8.621649 nan nan nan -4.857227 1.440457 4.863088 6.602742 -3.881496 12.967491 1.685325 0.244531 -6.654108 0.151977 -6.464604 8.640826 -0.481684 -16.149593 0.300306 -8.962876 -12.129031 -0.135506 -70.111740 -43.323468 33.517524 149.086011 -65.419293 -124.628408 -6.919392 -18.062357 -6.107781 13.024075 8.898491 0.146297 38.520355 11.007115 0.199371 -79.277940 58.715911 -65.534130 11.254664 10.335304 -17.929427 
47.434845 26.783606 86.191772 -82.622682 3.245955 84.017542 17.787920 9.522664 -4.524418 -3.364219 10.715251 39.939656 1.383924 14.041168 -34.574934 nan nan nan -17.556426 -11.256083 -18.605833 2.567313 -13.008400 30.409272 5.059304 -1.851891 -8.677250 nan nan nan -4.884361 1.472171 4.803514 6.615289 -3.881581 13.078448 1.695246 0.261988 -6.659597 0.148381 -6.441130 8.725991 -0.368007 -16.106625 0.174941 -8.967736 -12.156165 -0.148229 -70.099643 -43.316498 33.505894 148.934376 -65.380954 -124.729341 -7.005117 -18.076993 -6.438524 13.018509 8.941823 0.165909 38.482639 10.991442 0.161579 -79.404998 58.721687 -65.720060 11.321754 10.325590 -17.870679 
47.430008 26.846216 86.182465 -82.568425 3.041503 84.053224 17.612963 9.353405 -4.553113 -3.298634 10.978990 39.961075 1.220816 13.827027 -34.376672 nan nan nan -17.737126 -11.355250 -18.759101 2.656211 -12.776009 30.632092 5.178561 -2.016943 -8.848069 nan nan nan -5.834856 1.699751 4.490252 7.415494 -4.229989 13.666029 1.894627 0.494501 -6.700591 6.082407 -17.870242 10.757108 6.187745 -25.338560 1.326375 -9.345757 -11.326748 0.394623 -70.889003 -44.477793 34.734269 148.020166 -65.464623 -124.393521 -7.495513 -18.279181 -4.863637 12.747047 9.416968 -0.330167 38.254346 10.310221 0.046043 -79.954100 58.623423 -66.479133 12.194570 10.726245 -17.416552 
47.414822 26.877787 86.208214 -82.622766 3.038626 84.070936 17.630972 9.371178 -4.542499 -3.044721 11.286204 40.034038 0.865500 13.414965 -34.426052 nan nan nan -17.671842 -11.256379 -18.848877 2.491085 -12.926664 30.776488 5.247527 -1.955764 -8.718109 nan nan nan -5.766212 1.654460 4.424399 7.287234 -4.139103 13.722812 1.966347 0.437057 -6.149372 6.957485 -17.512729 10.315602 6.394039 -26.543273 0.513369 -9.219478 -11.052729 -0.900827 -71.281548 -44.034818 34.815953 146.463920 -65.795053 -121.049292 -8.646387 -20.262437 -1.928105 12.471334 9.583157 -1.323364 38.561581 9.893531 0.782241 -80.073386 58.345860 -66.070174 12.590910 11.585993 -17.491045 
